inDegrees=yes
name=ik_S48_A05_T02
DataType=double
version=3
OpenSimVersion=4.3-2021-08-27-4bc7ad9
endheader
time	pelvis_tilt	pelvis_list	pelvis_rotation	pelvis_tx	pelvis_ty	pelvis_tz	hip_flexion_r	hip_adduction_r	hip_rotation_r	knee_angle_r	knee_angle_r_beta	ankle_angle_r	subtalar_angle_r	mtp_angle_r	hip_flexion_l	hip_adduction_l	hip_rotation_l	knee_angle_l	knee_angle_l_beta	ankle_angle_l	subtalar_angle_l	mtp_angle_l	lumbar_extension	lumbar_bending	lumbar_rotation	arm_flex_r	arm_add_r	arm_rot_r	elbow_flex_r	pro_sup_r	wrist_flex_r	wrist_dev_r	arm_flex_l	arm_add_l	arm_rot_l	elbow_flex_l	pro_sup_l	wrist_flex_l	wrist_dev_l
0	0	0	0	0	0.9399999999999999	0	0	0	0	0	0	0	0	0	0	0	0	0	0	0	0	0	0	0	0	0	0	0	0	89.99999999963507	0	0	0	0	0	0	89.99999999869995	0	0
0.02	-4.85789296340995	0.4372995649792146	25.51311333038335	0	0.9399999999999999	0	2.94890819040735	-1.383311917621507	-0.992974746506784	4.56447620210897	0.07966513835572768	0	0	0	2.94890819040735	-1.383311917621507	-0.992974746506784	4.56447620210897	0.07966513835572768	0	0	0	0.6724834074259963	-2.424009133047592	6.14606392373864	27.31129808521256	-4.794138212560773	-15.22703491986528	50.92709095542734	160.8922841873265	0	0	30.09254536641339	-8.038051133994896	-11.85484687395033	27.11781789747737	128.3464171779239	0	0
0.04	-4.853039913938557	0.4381939278018733	25.49419106840369	0	0.9399999999999999	0	3.104372384741166	-1.45710194887687	-1.049325455289741	4.717385663413383	0.08233391191294054	0	0	0	3.104372384741166	-1.45710194887687	-1.049325455289741	4.717385663413383	0.08233391191294054	0	0	0	0.6647071139230304	-2.41264664675029	6.141343730728752	27.35698970247378	-4.869030406553264	-15.2064824326143	50.93784400790808	160.796328027921	0	0	30.01158315443794	-8.048070196266785	-11.80793811107595	27.21384185197268	128.2601801688906	0	0
0.06	-4.845262315174149	0.4622422049606689	25.50209671534174	0	0.9399999999999999	0	3.234224199491673	-1.51649595588949	-1.097344918001447	4.825802412897588	0.08422614115574976	0	0	0	3.234224199491673	-1.51649595588949	-1.097344918001447	4.825802412897588	0.08422614115574976	0	0	0	0.6700591069864231	-2.382291289022587	6.131604529519586	27.3758663387011	-4.919703264565161	-15.17647242554183	50.88313957128238	160.8161206824373	0	0	29.92400148582064	-8.054428972507019	-11.78819926124049	27.26618794297275	128.259114744857	0	0
0.08	-4.822132449978381	0.4634004118997997	25.56318521071503	0	0.9399999999999999	0	3.864083329451546	-1.81659002632977	-1.313463544375969	5.609068227016794	0.0978967085304438	0	0	0	3.864083329451546	-1.81659002632977	-1.313463544375969	5.609068227016794	0.0978967085304438	0	0	0	0.65141632892263	-2.350407201576633	6.105044375608053	27.42816587891303	-4.932618051716172	-15.20514046739711	50.78457941560897	160.8181049882522	0	0	29.87244792514537	-8.071420105684815	-11.79057912416602	27.32154018396623	128.3218791033181	0	0
0.1	-4.818703641178321	0.4809203595154665	25.57344594698426	0	0.9399999999999999	0	3.869657483557771	-1.819385200361076	-1.315364294154859	5.616457851281029	0.09802568180433999	0	0	0	3.869657483557771	-1.819385200361076	-1.315364294154859	5.616457851281029	0.09802568180433999	0	0	0	0.6616462601987909	-2.335641660241309	6.111984255181946	27.49623684252429	-4.929444708193022	-15.23867697089549	50.75523094065411	160.867197390256	0	0	29.78996570832638	-8.123351935215808	-11.74233334378189	27.29757334944803	128.4263675861565	0	0
0.12	-4.818920410949687	0.4846638687138062	25.59890392440455	0	0.9399999999999999	0	3.901634087316297	-1.835588828506318	-1.32629946805164	5.658732535128686	0.09876351422772126	0	0	0	3.901634087316297	-1.835588828506318	-1.32629946805164	5.658732535128686	0.09876351422772126	0	0	0	0.6606544980126409	-2.330377236446916	6.094483962926255	27.58904674481461	-4.795789567272608	-15.19877438612389	49.28748048009271	159.972729763338	0	0	29.74510598668316	-8.153937939315462	-11.75334890104696	27.32335744942413	128.6091548527251	0	0
0.14	-4.83054449766332	0.4880713859634427	25.57672838090247	0	0.9399999999999999	0	3.921400604637773	-1.845601086585848	-1.333059919572685	5.684829311897583	0.09921898890649647	0	0	0	3.921400604637773	-1.845601086585848	-1.333059919572685	5.684829311897583	0.09921898890649647	0	0	0	0.6502677329286345	-2.320773660168753	6.116197641224741	27.72076706079473	-4.749508020864231	-15.26480569256958	49.1965917267971	160.0755680898714	0	0	29.70570684968248	-8.184457580132714	-11.75096374791048	27.27543536091357	129.1556587831139	0	0
0.16	-4.804149081676236	0.5250510544436801	25.51997359245784	0	0.9399999999999999	0	3.938789763211089	-1.854411833716487	-1.339008693462745	5.707762565547945	0.0996192496908903	0	0	0	3.938789763211089	-1.854411833716487	-1.339008693462745	5.707762565547945	0.0996192496908903	0	0	0	0.68892476134504	-2.297669778052533	6.123176591764204	27.74626804900451	-4.714983448044423	-15.24491533094903	49.0963255694526	160.1407952346578	0	0	29.53400812605185	-8.226376423872381	-11.75616448010986	27.27131045914796	129.6658836753184	0	0
0.18	-4.792727042255851	0.547695924415295	25.47921495275751	0	0.9399999999999999	0	3.957575512864747	-1.863938764375359	-1.345437745575882	5.732508321998244	0.1000511446168447	0	0	0	3.957575512864747	-1.863938764375359	-1.345437745575882	5.732508321998244	0.1000511446168447	0	0	0	0.7078710934206756	-2.281040726668131	6.122538225577369	27.80759728551905	-4.703097823136309	-15.19702441067138	49.01684412064568	160.1723073660689	0	0	29.43972439036357	-8.235626960428547	-11.73435472934832	27.29914516723846	129.8867552604362	0	0
0.2	-4.789499839742398	0.5433628594552101	25.43873642134593	0	0.9399999999999999	0	3.970851296691152	-1.87066666173419	-1.349980981433004	5.749981342742159	0.1003561063590952	0	0	0	3.970851296691152	-1.87066666173419	-1.349980981433004	5.749981342742159	0.1003561063590952	0	0	0	0.7079021067507232	-2.28524696168052	6.141731775295734	27.85070568278092	-4.683961497411187	-15.20393118087296	48.83842353432001	159.8718441794261	0	0	29.37768374815844	-8.242090152517337	-11.63319183532031	27.31516946017745	130.2414481117285	0	0
0.22	-4.824852096561872	0.5326042345550475	25.3695242619359	0	0.9399999999999999	0	3.989454025013835	-1.880103841784801	-1.356349794626783	5.774439127047364	0.1007829752229636	0	0	0	3.989454025013835	-1.880103841784801	-1.356349794626783	5.774439127047364	0.1007829752229636	0	0	0	0.6702473218804887	-2.278728601678134	6.143166511200294	27.99346869207654	-4.68899719777468	-15.07876530414297	48.7646223006866	159.8020194424925	0	0	29.36995735857574	-8.183147459346534	-11.49589493738533	27.34333623498019	130.4242970757588	0	0
